<?xml version="1.0" encoding="utf-8"?>
<!-- Generator: Adobe Illustrator 18.1.1, SVG Export Plug-In . SVG Version: 6.00 Build 0)  -->
<svg version="1.1" id="Layer_1" xmlns="http://www.w3.org/2000/svg" xmlns:xlink="http://www.w3.org/1999/xlink" x="0px" y="0px"
	 width="1092.7px" height="311px" viewBox="673.3 92 1092.7 311" enable-background="new 673.3 92 1092.7 311" xml:space="preserve"
	>
<g>
	<path fill="#333333" d="M976.4,229.2l-32.3,50.6h-6.7l-32.3-50.6v74h-18.5V191.8h13.7l40.4,61.3l40.3-61.3h13.7v111.4h-18.3V229.2z
		"/>
	<path fill="#333333" d="M1078.4,303.2c-1.4,0.6-4.1,0.8-6.4,0.8c-7.5,0-12.6-3.3-15.1-8.8c-6,6-14.2,9.4-22.4,9.4
		c-15,0-23.1-10.8-23.1-22.3c0-17,17.8-26.3,37.1-26.3c3.7,0,5.4,0.3,6.5,0.5v-6.4c0-6.5-5.1-12.9-14.2-12.9
		c-5.9,0-12.9,2.7-16.4,6.2l-9.6-9.6c6.8-6.7,16.4-11,27.7-11c18.8,0,30.1,11.8,30.1,27.2v35.3c0,3.7,2.4,6,5.7,6V303.2z
		 M1055,283.8v-15.4c-1.3-0.3-2.9-0.5-4.9-0.5c-11.3,0-20.9,4.8-20.9,12.6c0,4.3,3,9.9,11,9.9C1044.8,290.3,1051.1,288.3,1055,283.8
		z"/>
	<path fill="#333333" d="M1086.4,224.4h9.4v-17.5h18.5v17.5h18.5v13.9h-18.5v38.4c0,7.8,4.8,13.1,12.1,13.1c2.2,0,4.5-0.5,6.4-1.4
		v14.6c-3,1.4-6.4,1.8-9.6,1.8c-16.9,0-27.4-11-27.4-28v-38.4h-9.4V224.4z"/>
	<path fill="#333333" d="M1189.3,223.6v15.4c-2.1-0.6-4.3-0.8-6.4-0.8c-7.8,0-14.3,4.1-18.3,10.2v54.8h-17.8v-78.8h17.8v8.4
		c5.4-5.9,12.3-9.6,19.6-9.6C1186,223.3,1187.6,223.5,1189.3,223.6z"/>
	<path fill="#333333" d="M1217.2,269c1.8,12.1,10.2,19.9,23.7,19.9c7.8,0,14-2.4,18.1-6.8l10.5,10.8c-7.2,7.5-17.4,11.8-29.9,11.8
		c-24.7,0-41.4-16.4-41.4-41.4c0-23.7,15.3-40.3,38.4-40.3c23.6,0,36.6,17.4,36.6,46H1217.2z M1217.2,256.8h38.4
		c-1.6-11.1-7.6-18.5-18.5-18.5C1226.3,238.3,1218.9,245.6,1217.2,256.8z"/>
	<path fill="#333333" d="M1324.7,243.9c-3-3.2-8.4-6.1-13.2-6.1c-6.4,0-8.9,4.9-8.9,8.4c0,13.9,34.5,9.6,34.5,33.8
		c0,12.9-9.6,24.7-27.5,24.7c-10.5,0-20.5-4.1-27.2-11.3l10.8-11c3.7,4.5,9.6,7.6,15.3,7.6c7.8,0,11-5.7,11-9.9
		c0-13.2-34.5-8.4-34.5-33.6c0-12.3,8.3-23.6,25.2-23.6c9.7,0,19.1,3.5,25.6,10L1324.7,243.9z"/>
	<path fill="#333333" d="M1369.8,183.8v46.5c5.9-4.8,13.4-7.3,21.7-7.3c18.1,0,29.5,13.4,29.5,33.1v47.1h-17.7v-47.1
		c0-10.2-6.4-17.4-16.2-17.4c-7.3,0-13.1,2.4-17.2,6.5v57.9H1352V183.8H1369.8z"/>
	<path fill="#333333" d="M1439.8,303.2V183.8h17.8v73.6l26.9-33h21.2l-30.7,36.8l34.1,42h-20.9l-30.6-38v38H1439.8z"/>
	<path fill="#333333" d="M1582.2,303.2c-1.4,0.6-4.1,0.8-6.4,0.8c-7.5,0-12.6-3.3-15.1-8.8c-6,6-14.2,9.4-22.4,9.4
		c-15,0-23.1-10.8-23.1-22.3c0-17,17.8-26.3,37.1-26.3c3.7,0,5.4,0.3,6.5,0.5v-6.4c0-6.5-5.1-12.9-14.2-12.9
		c-5.9,0-12.9,2.7-16.4,6.2l-9.6-9.6c6.8-6.7,16.4-11,27.7-11c18.8,0,30.1,11.8,30.1,27.2v35.3c0,3.7,2.4,6,5.7,6V303.2z
		 M1558.8,283.8v-15.4c-1.3-0.3-2.9-0.5-4.9-0.5c-11.3,0-20.9,4.8-20.9,12.6c0,4.3,3,9.9,11,9.9
		C1548.6,290.3,1554.8,288.3,1558.8,283.8z"/>
	<path fill="#333333" d="M1608.1,283.5c5.9,0,10.7,4.6,10.7,10.7c0,5.9-4.8,10.5-10.7,10.5c-5.9,0-10.5-4.6-10.5-10.5
		C1597.6,288.1,1602.2,283.5,1608.1,283.5z"/>
	<path fill="#333333" d="M1627.9,331.4c5.1,0,8.4-3,8.4-8.4v-98.5h17.8v99c0,12.3-6.8,20.4-19.3,20.4c-2.4,0-5.4-0.2-7-0.8V331.4z
		 M1645.2,190c6,0,11,4.8,11,10.7c0,6-4.9,11-11,11s-10.7-4.9-10.7-11C1634.5,194.8,1639.2,190,1645.2,190z"/>
	<path fill="#333333" d="M1710.1,243.9c-3-3.2-8.4-6.1-13.2-6.1c-6.4,0-8.9,4.9-8.9,8.4c0,13.9,34.5,9.6,34.5,33.8
		c0,12.9-9.6,24.7-27.5,24.7c-10.5,0-20.5-4.1-27.2-11.3l10.8-11c3.7,4.5,9.6,7.6,15.3,7.6c7.8,0,11-5.7,11-9.9
		c0-13.2-34.5-8.4-34.5-33.6c0-12.3,8.3-23.6,25.2-23.6c9.7,0,19.1,3.5,25.6,10L1710.1,243.9z"/>
</g>
<g>
	<path fill="#333333" d="M820,243.9c-2.2-10.4-6.8-16.1-5.8-29.1c1.4-17.9-0.8-22.3-2.1-25.2c-1.3-2.9-3.1-5.4-5.5-7.6
		c-2.4-2.2-5.3-3.9-8.6-5.1c-3.4-1.2-6.8-1.9-11-1.9v0v0c-4.2,0-7.6,0.6-11,1.9c-3.4,1.2-6.3,2.9-8.6,5.1c-2.4,2.2-4.2,4.7-5.5,7.6
		c-1.3,2.9-3.5,7.3-2.1,25.2c1,13-3.7,18.7-5.8,29.1c-4.4,21,1,51.5,5.7,54.1c3.3,2.5,7.3,4.3,11.9,5.6c4.6,1.3,10,2,15.4,2v0v0
		c5.4,0,10.8-0.7,15.4-2c4.6-1.3,8.6-3.2,11.9-5.6C819.1,295.4,824.4,264.8,820,243.9z"/>
	<linearGradient id="SVGID_1_" gradientUnits="userSpaceOnUse" x1="788.4472" y1="307.3128" x2="842.399" y2="307.3128">
		<stop  offset="0" style="stop-color:#FFEB3B"/>
		<stop  offset="1" style="stop-color:#66BB6A"/>
	</linearGradient>
	<path fill="url(#SVGID_1_)" d="M822.2,284.3c-17.4,3.4-37.5,10.9-41.3,28.2c-3,13.3,1.1,25.2,13.8,27.7c5.6-0.4,11.1-1.3,16-2.7
		c7.1-2,13.2-4.9,18.3-8.7c5.2-2.8,10.9-27.8,11.2-53.6c0-0.7-0.8-0.9-1.2-0.4C834.8,279.6,828.5,283,822.2,284.3z"/>
	<linearGradient id="SVGID_2_" gradientUnits="userSpaceOnUse" x1="744.8801" y1="161.8033" x2="827.8719" y2="161.8033">
		<stop  offset="0" style="stop-color:#FFEB3B"/>
		<stop  offset="1" style="stop-color:#66BB6A"/>
	</linearGradient>
	<path fill="url(#SVGID_2_)" d="M744.9,176.5c5.6,16,33.1,0,51.5-5.3c9.2-2.7,20.5-4.8,28.3-1.6c0.4,0.2,0.7,0.3,1.1,0.6
		c1.1,0.6,2.4-0.3,2.1-1.5c-0.7-2.9-1.6-4.7-2.3-6.2c-2-4.4-4.8-8.3-8.4-11.6c-3.6-3.3-8.1-5.9-13.2-7.8c-5.2-1.9-10.5-2.9-16.9-2.9
		v0l0,0c-6.4,0-11.7,1-16.9,2.9c-5.2,1.9-9.6,4.5-13.2,7.8c-3.6,3.3-6.4,7.2-8.4,11.6C747.3,165.1,745.6,168.5,744.9,176.5
		L744.9,176.5z"/>
	<linearGradient id="SVGID_3_" gradientUnits="userSpaceOnUse" x1="768.5208" y1="227.9972" x2="840.8001" y2="227.9972">
		<stop  offset="0" style="stop-color:#FFEB3B"/>
		<stop  offset="1" style="stop-color:#66BB6A"/>
	</linearGradient>
	<path fill="url(#SVGID_3_)" d="M799,256.2c9.6-1.8,18.8-7.7,28.5-7.6c3.6,0,6.7,0.4,9.2,1.5c0.8,0.3,1.7-0.4,1.6-1.3
		c-0.2-1-0.4-2-0.6-3c-3.3-15.9-10.5-24.6-8.9-44.6c0-0.6,0.1-1.2,0.1-1.8c0.1-0.8-0.9-1.2-1.4-0.6c-2.5,2.9-6,5.4-10.8,7
		c-15.6,5.2-32.8,6.1-45.1,15.9C755.9,234.1,757.4,264.1,799,256.2z"/>
	<linearGradient id="SVGID_4_" gradientUnits="userSpaceOnUse" x1="733.8052" y1="245.2085" x2="786.0909" y2="245.2085">
		<stop  offset="0" style="stop-color:#00BCD4"/>
		<stop  offset="1" style="stop-color:#9C27B0"/>
	</linearGradient>
	<path fill="url(#SVGID_4_)" d="M778.4,267.8c-18.2,0-26.4-5.2-31.8-14.2c-3.4-5.7-2.2-23.1,11.4-36.8c3.5-3.5,8.1-5.9,11-9.9
		c2.9-4,3.7-10.2,0.1-13.6c-5.7-1.1-11.4,1.2-17,2.7c-2.3,0.6-4.3,0.8-5.9,0.3c-0.7-0.2-1.4,0.3-1.3,1c0.1,1.2,0.2,2.5,0.3,3.8
		c1.6,20-5.6,28.7-8.9,44.6c-2.7,13.2-3,28.8-1.8,42.9c0.2,2.1,1.4,4.1,3.3,5.1c6.7,3.9,15.2,4.9,21.9,1.2c6-3.3,9.6-10.2,15.8-13
		C790.2,275.3,788.1,267.8,778.4,267.8z"/>
	<linearGradient id="SVGID_5_" gradientUnits="userSpaceOnUse" x1="785.6063" y1="188.5681" x2="815.7708" y2="188.5681">
		<stop  offset="0" style="stop-color:#9C27B0"/>
		<stop  offset="1" style="stop-color:#FFEB3B"/>
	</linearGradient>
	<path fill="url(#SVGID_5_)" d="M787,193.7c-1.7-1-1.8-3-0.8-4.4c1-1.4,2.9-2.4,4.7-3.2c7.1-3,15.5-4.2,23.6-3.4
		c1.5,1.3,1.5,3.3,0.5,4.8s-2.9,2.6-4.9,3.5c-5.7,2.6-12.5,3.9-19.2,3.6C789.5,194.5,788.1,194.4,787,193.7z"/>
	<linearGradient id="SVGID_6_" gradientUnits="userSpaceOnUse" x1="801.0713" y1="264.6811" x2="840.0351" y2="264.6811">
		<stop  offset="0" style="stop-color:#9C27B0"/>
		<stop  offset="1" style="stop-color:#FFEB3B"/>
	</linearGradient>
	<path fill="url(#SVGID_6_)" d="M839.4,256.9c-0.1-0.7-0.7-1.3-1.4-1.3c-0.4,0-0.8,0-1.2,0c-10.6-0.1-21.1,2.8-30.2,8.3
		c-2.8,1.7-5.8,4.2-5.5,7.6c0.1,0.7,0.3,1.4,0.9,1.9c1.3,1.2,3.1,0.4,4.6-0.2c2.6-1,5.3-1.3,8.1-1.5c5.3-0.5,10.6-1,15.9-1.5
		c2.9-0.3,5.8-0.6,8.3-1.9c0,0,0,0,0,0c0.8-0.4,1.2-1.2,1.2-2.1C839.9,263,839.7,259.9,839.4,256.9z"/>
	<linearGradient id="SVGID_7_" gradientUnits="userSpaceOnUse" x1="738.4261" y1="323.1833" x2="767.2969" y2="323.1833">
		<stop  offset="0" style="stop-color:#9C27B0"/>
		<stop  offset="0.9949" style="stop-color:#EF5350"/>
	</linearGradient>
	<path fill="url(#SVGID_7_)" d="M764.6,337.4c1.4,0.4,2.8-0.7,2.6-2.2c-0.1-1-0.3-2-0.5-2.9c-0.7-3.3-2-6.6-2.7-9.9
		c-0.6-3.1-0.8-6.2-0.7-9.3c0.1-2.8-2.8-5-5.6-4.1c-3,1-6.6,1.3-9.8,1.6c-2.6,0.3-5.2,0.7-7.8,1.2c-1.2,0.3-2,1.4-1.7,2.6
		c2.1,7.7,4.5,13.1,6.9,14.3C750.7,332.5,757.2,335.4,764.6,337.4C764.6,337.4,764.6,337.4,764.6,337.4z"/>
</g>
</svg>
