<?xml version="1.0" encoding="utf-8"?>
<!-- Generator: Adobe Illustrator 18.1.1, SVG Export Plug-In . SVG Version: 6.00 Build 0)  -->
<svg version="1.1" id="Layer_1" xmlns="http://www.w3.org/2000/svg" xmlns:xlink="http://www.w3.org/1999/xlink" x="0px" y="0px"
	 width="647.3px" height="457px" viewBox="6 92 647.3 457" enable-background="new 6 92 647.3 457" xml:space="preserve">
<g>
	<path fill="#333333" d="M133.4,417.5L114,447.8h-4l-19.3-30.3v44.3h-11v-66.7h8.2l24.2,36.7l24.1-36.7h8.2v66.7h-11V417.5z"/>
	<path fill="#333333" d="M194.4,461.8c-0.9,0.4-2.5,0.5-3.8,0.5c-4.5,0-7.5-2-9-5.2c-3.6,3.6-8.5,5.6-13.4,5.6
		c-9,0-13.8-6.5-13.8-13.3c0-10.2,10.7-15.7,22.2-15.7c2.2,0,3.2,0.2,3.9,0.3v-3.8c0-3.9-3-7.7-8.5-7.7c-3.5,0-7.7,1.6-9.8,3.7
		l-5.7-5.7c4.1-4,9.8-6.6,16.6-6.6c11.2,0,18,7,18,16.3v21.1c0,2.2,1.4,3.6,3.4,3.6V461.8z M180.4,450.1v-9.2
		c-0.8-0.2-1.7-0.3-3-0.3c-6.8,0-12.5,2.9-12.5,7.5c0,2.6,1.8,5.9,6.6,5.9C174.3,454,178,452.8,180.4,450.1z"/>
	<path fill="#333333" d="M199.1,414.6h5.6v-10.5h11v10.5h11v8.3h-11v22.9c0,4.7,2.9,7.8,7.2,7.8c1.3,0,2.7-0.3,3.8-0.9v8.8
		c-1.8,0.9-3.8,1-5.7,1c-10.1,0-16.4-6.6-16.4-16.8v-22.9h-5.6V414.6z"/>
	<path fill="#333333" d="M260.7,414.1v9.2c-1.2-0.4-2.6-0.5-3.8-0.5c-4.7,0-8.6,2.5-11,6.1v32.8h-10.7v-47.1H246v5
		c3.2-3.5,7.3-5.7,11.7-5.7C258.7,414,259.7,414.1,260.7,414.1z"/>
	<path fill="#333333" d="M277.4,441.3c1,7.2,6.1,11.9,14.2,11.9c4.7,0,8.4-1.4,10.9-4.1l6.3,6.5c-4.3,4.5-10.4,7-17.9,7
		c-14.8,0-24.8-9.8-24.8-24.8c0-14.2,9.1-24.1,22.9-24.1c14.1,0,21.9,10.4,21.9,27.5H277.4z M277.4,434h22.9c-1-6.7-4.6-11-11-11
		C282.8,422.9,278.4,427.3,277.4,434z"/>
	<path fill="#333333" d="M341.7,426.2c-1.8-1.9-5-3.6-7.9-3.6c-3.8,0-5.3,3-5.3,5c0,8.3,20.7,5.7,20.7,20.2
		c0,7.7-5.7,14.8-16.5,14.8c-6.3,0-12.3-2.5-16.3-6.8l6.5-6.6c2.2,2.7,5.7,4.6,9.1,4.6c4.7,0,6.6-3.4,6.6-5.9
		c0-7.9-20.7-5-20.7-20.1c0-7.3,5-14.1,15-14.1c5.8,0,11.4,2.1,15.3,6L341.7,426.2z"/>
	<path fill="#333333" d="M368.7,390.3v27.8c3.5-2.9,8-4.4,13-4.4c10.9,0,17.6,8,17.6,19.8v28.2h-10.6v-28.2c0-6.1-3.8-10.4-9.7-10.4
		c-4.4,0-7.8,1.4-10.3,3.9v34.7H358v-71.4H368.7z"/>
	<path fill="#333333" d="M410.6,461.8v-71.4h10.7v44l16.1-19.7H450l-18.4,22l20.4,25.1h-12.5L421.2,439v22.8H410.6z"/>
	<path fill="#333333" d="M495.7,461.8c-0.9,0.4-2.5,0.5-3.8,0.5c-4.5,0-7.5-2-9-5.2c-3.6,3.6-8.5,5.6-13.4,5.6
		c-9,0-13.8-6.5-13.8-13.3c0-10.2,10.7-15.7,22.2-15.7c2.2,0,3.2,0.2,3.9,0.3v-3.8c0-3.9-3-7.7-8.5-7.7c-3.5,0-7.7,1.6-9.8,3.7
		l-5.7-5.7c4.1-4,9.8-6.6,16.6-6.6c11.2,0,18,7,18,16.3v21.1c0,2.2,1.4,3.6,3.4,3.6V461.8z M481.7,450.1v-9.2
		c-0.8-0.2-1.7-0.3-3-0.3c-6.8,0-12.5,2.9-12.5,7.5c0,2.6,1.8,5.9,6.6,5.9C475.6,454,479.4,452.8,481.7,450.1z"/>
	<path fill="#333333" d="M511.2,450c3.5,0,6.4,2.8,6.4,6.4c0,3.5-2.9,6.3-6.4,6.3c-3.5,0-6.3-2.8-6.3-6.3
		C504.9,452.7,507.7,450,511.2,450z"/>
	<path fill="#333333" d="M523,478.6c3,0,5-1.8,5-5v-58.9h10.7v59.2c0,7.3-4.1,12.2-11.5,12.2c-1.4,0-3.2-0.1-4.2-0.5V478.6z
		 M533.4,394.1c3.6,0,6.6,2.9,6.6,6.4c0,3.6-3,6.6-6.6,6.6c-3.6,0-6.4-3-6.4-6.6C527,396.9,529.8,394.1,533.4,394.1z"/>
	<path fill="#333333" d="M572.2,426.2c-1.8-1.9-5-3.6-7.9-3.6c-3.8,0-5.3,3-5.3,5c0,8.3,20.7,5.7,20.7,20.2
		c0,7.7-5.7,14.8-16.5,14.8c-6.3,0-12.3-2.5-16.3-6.8l6.5-6.6c2.2,2.7,5.7,4.6,9.1,4.6c4.7,0,6.6-3.4,6.6-5.9
		c0-7.9-20.7-5-20.7-20.1c0-7.3,5-14.1,15-14.1c5.8,0,11.4,2.1,15.3,6L572.2,426.2z"/>
</g>
<g>
	<path fill="#333333" d="M362.8,267.9c-2.2-10.4-6.9-16.1-5.8-29.2c1.4-18-0.8-22.4-2.1-25.3c-1.3-2.9-3.1-5.4-5.5-7.6
		c-2.4-2.2-5.3-3.9-8.7-5.1c-3.4-1.2-6.8-1.9-11.1-1.9v0l0,0c-4.2,0-7.7,0.6-11.1,1.9c-3.4,1.2-6.3,3-8.7,5.1
		c-2.4,2.2-4.2,4.7-5.5,7.6c-1.3,2.9-3.5,7.4-2.1,25.3c1,13.1-3.7,18.7-5.8,29.2c-4.4,21.1,1,51.7,5.7,54.3c3.4,2.5,7.3,4.4,12,5.7
		c4.6,1.3,10,2,15.5,2l0,0v0c5.4,0,10.8-0.7,15.5-2c4.6-1.3,8.6-3.2,12-5.7C361.8,319.6,367.2,288.9,362.8,267.9z"/>
	<linearGradient id="SVGID_1_" gradientUnits="userSpaceOnUse" x1="331.1316" y1="331.533" x2="385.2603" y2="331.533">
		<stop  offset="0" style="stop-color:#FFEB3B"/>
		<stop  offset="1" style="stop-color:#66BB6A"/>
	</linearGradient>
	<path fill="url(#SVGID_1_)" d="M365,308.4c-17.4,3.4-37.6,10.9-41.4,28.3c-3,13.3,1.1,25.2,13.9,27.8c5.7-0.4,11.1-1.3,16-2.7
		c7.1-2,13.2-4.9,18.4-8.7c5.2-2.8,10.9-27.9,11.2-53.8c0-0.7-0.8-1-1.2-0.4C377.6,303.7,371.3,307.2,365,308.4z"/>
	<linearGradient id="SVGID_2_" gradientUnits="userSpaceOnUse" x1="287.4216" y1="185.5464" x2="370.6856" y2="185.5464">
		<stop  offset="0" style="stop-color:#FFEB3B"/>
		<stop  offset="1" style="stop-color:#66BB6A"/>
	</linearGradient>
	<path fill="url(#SVGID_2_)" d="M287.4,200.3c5.6,16.1,33.3,0,51.7-5.3c9.2-2.7,20.6-4.8,28.4-1.6c0.4,0.2,0.8,0.3,1.1,0.6
		c1.1,0.6,2.4-0.3,2.1-1.5c-0.7-2.9-1.6-4.7-2.3-6.3c-2-4.4-4.8-8.3-8.4-11.6c-3.7-3.3-8.1-5.9-13.3-7.8c-5.2-1.9-10.5-2.9-17-2.9v0
		l0,0c-6.5,0-11.8,1-17,2.9c-5.2,1.9-9.6,4.5-13.3,7.8c-3.7,3.3-6.5,7.2-8.4,11.6C289.8,188.8,288.1,192.3,287.4,200.3L287.4,200.3z
		"/>
	<linearGradient id="SVGID_3_" gradientUnits="userSpaceOnUse" x1="311.1398" y1="251.9574" x2="383.6562" y2="251.9574">
		<stop  offset="0" style="stop-color:#FFEB3B"/>
		<stop  offset="1" style="stop-color:#66BB6A"/>
	</linearGradient>
	<path fill="url(#SVGID_3_)" d="M341.7,280.3c9.6-1.8,18.8-7.7,28.6-7.6c3.6,0,6.7,0.4,9.2,1.5c0.8,0.3,1.7-0.4,1.6-1.3
		c-0.2-1-0.4-2-0.6-3c-3.3-16-10.5-24.7-9-44.8c0-0.6,0.1-1.2,0.1-1.8c0.1-0.8-0.9-1.2-1.4-0.6c-2.5,2.9-6,5.4-10.8,7
		c-15.7,5.3-32.9,6.1-45.3,15.9C298.4,258.1,300,288.2,341.7,280.3z"/>
	<linearGradient id="SVGID_4_" gradientUnits="userSpaceOnUse" x1="276.3104" y1="269.2251" x2="328.7675" y2="269.2251">
		<stop  offset="0" style="stop-color:#00BCD4"/>
		<stop  offset="1" style="stop-color:#9C27B0"/>
	</linearGradient>
	<path fill="url(#SVGID_4_)" d="M321,291.9c-18.2,0-26.5-5.2-31.9-14.2c-3.4-5.7-2.2-23.2,11.5-36.9c3.5-3.5,8.2-5.9,11-9.9
		c2.9-4,3.7-10.2,0.1-13.6c-5.7-1.1-11.4,1.2-17.1,2.7c-2.4,0.6-4.3,0.8-5.9,0.3c-0.7-0.2-1.4,0.3-1.3,1c0.1,1.2,0.2,2.5,0.3,3.8
		c1.6,20-5.6,28.8-9,44.8c-2.7,13.2-3,28.9-1.8,43c0.2,2.2,1.4,4.1,3.3,5.2c6.7,3.9,15.3,4.9,22,1.2c6-3.4,9.6-10.2,15.9-13.1
		C332.9,299.4,330.8,291.9,321,291.9z"/>
	<linearGradient id="SVGID_5_" gradientUnits="userSpaceOnUse" x1="328.2814" y1="212.399" x2="358.5448" y2="212.399">
		<stop  offset="0" style="stop-color:#9C27B0"/>
		<stop  offset="1" style="stop-color:#FFEB3B"/>
	</linearGradient>
	<path fill="url(#SVGID_5_)" d="M329.7,217.6c-1.7-1-1.8-3-0.8-4.4c1-1.4,2.9-2.4,4.8-3.2c7.1-3,15.6-4.2,23.7-3.4
		c1.5,1.3,1.5,3.3,0.5,4.8c-1.1,1.5-2.9,2.6-4.9,3.5c-5.7,2.6-12.6,3.9-19.3,3.6C332.2,218.4,330.8,218.2,329.7,217.6z"/>
	<linearGradient id="SVGID_6_" gradientUnits="userSpaceOnUse" x1="343.7971" y1="288.7616" x2="382.8886" y2="288.7616">
		<stop  offset="0" style="stop-color:#9C27B0"/>
		<stop  offset="1" style="stop-color:#FFEB3B"/>
	</linearGradient>
	<path fill="url(#SVGID_6_)" d="M382.2,280.9c-0.1-0.7-0.7-1.3-1.4-1.4c-0.4,0-0.8,0-1.2,0c-10.6-0.1-21.2,2.8-30.3,8.3
		c-2.8,1.7-5.8,4.2-5.6,7.6c0.1,0.7,0.3,1.4,0.9,1.9c1.3,1.2,3.1,0.4,4.6-0.2c2.6-1,5.4-1.3,8.1-1.5c5.3-0.5,10.7-1,16-1.5
		c2.9-0.3,5.8-0.6,8.3-1.9c0,0,0,0,0,0c0.8-0.4,1.2-1.2,1.2-2.1C382.8,287.1,382.5,283.9,382.2,280.9z"/>
	<linearGradient id="SVGID_7_" gradientUnits="userSpaceOnUse" x1="280.9464" y1="347.4556" x2="309.9119" y2="347.4556">
		<stop  offset="0" style="stop-color:#9C27B0"/>
		<stop  offset="0.9949" style="stop-color:#EF5350"/>
	</linearGradient>
	<path fill="url(#SVGID_7_)" d="M307.2,361.8c1.4,0.4,2.8-0.8,2.7-2.2c-0.1-1-0.3-2-0.5-2.9c-0.7-3.4-2-6.6-2.7-9.9
		c-0.6-3.1-0.8-6.2-0.7-9.3c0.1-2.8-2.8-5-5.7-4.1c-3,1-6.6,1.3-9.8,1.6c-2.6,0.3-5.3,0.7-7.9,1.2c-1.2,0.3-2,1.4-1.7,2.6
		c2.1,7.8,4.5,13.1,6.9,14.3C293.3,356.8,299.7,359.7,307.2,361.8C307.2,361.7,307.2,361.8,307.2,361.8z"/>
</g>
</svg>
